# xmcd
#
# Track frame offsets: 
#        150
#        3020
#        4612
#        36772
#        61207
#        87310
#        117972
#        134955
#        167395
#        195110
#        229352
#        247422
#        252460
#        282300
#        327847
#
# Disc length: 4380 seconds
#
# Revision: 6
# Processed by: cddbd v1.5.1PL2 Copyright (c) Steve Scherf et al.
# Submitted via: ExactAudioCopy v0.95b3
#
DISCID=ca111a0f
DTITLE=Type O Negative - October Rust
DYEAR=1996
DGENRE=Heavy Metal
TTITLE0=Bad Ground
TTITLE1=Are We On?
TTITLE2=Love You to Death
TTITLE3=Be My Druidess
TTITLE4=Green Man
TTITLE5=Red Water (Christmas Mourning)
TTITLE6=My Girlfriend's Girlfriend
TTITLE7=Die With Me
TTITLE8=Burnt Flowers Fallen
TTITLE9=In Praise of Bacchus
TTITLE10=Cinnamon Girl
TTITLE11=The Glorious Liberation of the People's Technocratic Republic
TTITLE11=of Vinnland by the Combined Forces of the United Territories
TTITLE11=of EEuropa
TTITLE12=Wolf Moon (Including Zoanthropic Paranoia)
TTITLE13=Haunted
TTITLE14=Hope It Wasn't Too Disappointing
EXTD=
EXTT0=
EXTT1=
EXTT2=
EXTT3=
EXTT4=
EXTT5=
EXTT6=
EXTT7=
EXTT8=
EXTT9=
EXTT10=
EXTT11=
EXTT12=
EXTT13=
EXTT14=
PLAYORDER=
